<svg xmlns="http://www.w3.org/2000/svg" xmlns:xlink="http://www.w3.org/1999/xlink" width="75" height="54" version="1.1" viewBox="0 0 75 54"><title>Shape</title><desc>Created with Sketch.</desc><g id="Bulk-Optimize" fill="none" fill-rule="evenodd" stroke="none" stroke-width="1" opacity=".15"><g id="Bulk-Optimize-Free-Account-Popup-0-Pricing-One-Time" fill="#FFF" transform="translate(-602.000000, -556.000000)"><g id="Group-16" transform="translate(541.000000, 544.000000)"><g id="Shape"><path d="M135.847615,65.4118845 L135.847615,30.0205479 L98.4782609,12.3256648 L61.1089067,30.0205479 L61.1089067,65.4110993 L98.4782609,83.1067676 L135.847615,65.4118845 L135.847615,65.4118845 Z M98.4782609,45.4491918 L68.2896132,31.1544527 L80.9908469,25.1402027 L111.180452,39.4349418 L98.4782609,45.4491918 L98.4782609,45.4491918 Z M100.87183,77.4403845 L100.87183,48.8493358 L113.573063,42.8350858 L113.573063,48.4205878 L118.360201,46.1535635 L118.360201,40.5680614 L131.061435,34.5538114 L131.061435,63.1440749 L100.87183,77.4403845 L100.87183,77.4403845 Z M128.666909,31.1544527 L115.965675,37.1687027 L85.7770272,22.8731783 L98.4782609,16.8589283 L128.666909,31.1544527 L128.666909,31.1544527 Z M65.8960444,34.5545967 L96.084692,48.8493358 L96.084692,77.4395993 L65.8960444,63.1448602 L65.8960444,34.5545967 L65.8960444,34.5545967 Z"/></g></g></g></g></svg>