<svg xmlns="http://www.w3.org/2000/svg" xmlns:xlink="http://www.w3.org/1999/xlink" width="512" height="512" class="pause" version="1.1" viewBox="0 0 512 512"><path fill="#000" d="M438.857 54.857v402.286q0 7.428-5.428 12.857t-12.857 5.428h-146.286q-7.428 0-12.857-5.428t-5.428-12.857v-402.286q0-7.428 5.428-12.857t12.857-5.428h146.286q7.428 0 12.857 5.428t5.428 12.857zM182.857 54.857v402.286q0 7.428-5.429 12.857t-12.857 5.428h-146.286q-7.428 0-12.857-5.428t-5.428-12.857v-402.286q0-7.428 5.428-12.857t12.857-5.428h146.286q7.429 0 12.857 5.428t5.428 12.857z"/></svg>